<svg width="25" height="24" viewBox="0 0 25 24" fill="none" xmlns="http://www.w3.org/2000/svg">
<rect x="0.757812" y="0.0078125" width="23.9375" height="23.9375" rx="11.9688" fill="#0E273D"/>
<path fill-rule="evenodd" clip-rule="evenodd" d="M10.0641 14.3306L17.9634 6.28495C18.7613 5.47373 19.9715 6.41793 18.9741 7.48182C18.9741 7.48182 11.3939 17.0036 10.995 17.5489C10.8757 17.7413 10.7093 17.9001 10.5115 18.0103C10.3136 18.1204 10.091 18.1782 9.86458 18.1782C9.63817 18.1782 9.41552 18.1204 9.2177 18.0103C9.01988 17.9001 8.85346 17.7413 8.7342 17.5489L6.24735 13.2933C6.12098 13.0624 6.08128 12.7939 6.13542 12.5363C6.18956 12.2787 6.33397 12.049 6.54261 11.8885C6.75125 11.728 7.01038 11.6473 7.27325 11.6611C7.53611 11.6748 7.78541 11.7821 7.97618 11.9635L10.0641 14.3306Z" fill="#F8F8F8"/>
</svg>
